#!OML:ASF F:\VICON\USERDATA\Patient Classification 1\PLAYGROUND\JustinFriday\JustinFriday.ASF
:FULLY-SPECIFIED
:DEGREES
1494
root -16.4725 17.7735 20.4174 351.611 27.3901 -7.63126
lowerback 10.9563 1.73334 3.29988
upperback 4.85426 2.8223 5.2236
thorax -1.17957 1.44011 3.24178
lowerneck -8.12527 -2.7347 -4.35036
upperneck 18.6622 -3.39365 2.16395
head 7.16069 -1.70283 1.13898
rclavicle 7.05686e-014 -4.69132e-014
rhumerus -28.5901 -26.6622 -70.6902
rradius 15.9379
rwrist 6.85313
rhand -17.9521 -21.854
rfingers 7.12502
rthumb 8.31657 -51.6703
lclavicle 7.05686e-014 -4.69132e-014
lhumerus -31.6768 -5.2938 87.9114
lradius 33.3499
lwrist -2.18331
lhand -8.7962 -9.0612
lfingers 7.12502
lthumb 17.1426 20.2026
rfemur -2.90204 0.239217 33.4711
rtibia 15.8519
rfoot -5.16561 -3.53998
rtoes 22.3266
lfemur -12.5798 5.54865 -7.35853
ltibia 72.1166
lfoot 8.88194 -9.62772
ltoes 8.11601
1495
root -16.4215 17.7039 20.5875 347.966 25.3809 -12.22
lowerback 13.054 1.88721 7.2448
upperback 4.80791 3.71791 6.39096
thorax -2.21302 1.90422 2.08278
lowerneck -7.85016 -2.84428 -4.93382
upperneck 19.3159 -3.56994 2.70628
head 7.35191 -1.78077 1.40037
rclavicle 5.56597e-014 -5.24792e-014
rhumerus -29.0855 -25.2393 -71.1107
rradius 16.5446
rwrist 5.30142
rhand -18.2164 -22.3643
rfingers 7.12502
rthumb 8.06148 -52.1905
lclavicle 5.56597e-014 -5.24792e-014
lhumerus -32.9668 -5.17887 87.9531
lradius 33.4854
lwrist -1.93189
lhand -8.77939 -8.52411
lfingers 7.12502
lthumb 17.1588 20.7383
rfemur -1.07462 1.72747 38.6233
rtibia 17.0814
rfoot -6.54912 -4.36896
rtoes 23.8419
lfemur -11.7595 6.963 -1.20083
ltibia 72.7046
lfoot 7.55695 -10.4067
ltoes 7.52266
1496
root -16.2552 17.8369 20.6745 354.64 28.4779 -2.92677
lowerback 10.0922 1.75514 -0.00916436
upperback 4.5273 2.46128 3.81154
thorax -1.11504 1.22488 3.68868
lowerneck -7.9803 -2.8909 -5.25036
upperneck 18.9482 -3.60452 2.84352
head 7.26577 -1.80797 1.49235
rclavicle 1.06946e-013 -5.08889e-014
rhumerus -27.6146 -24.3424 -71.9896
rradius 16.8533
rwrist 4.21967
rhand -18.3775 -22.6915
rfingers 7.12502
rthumb 7.90603 -52.5236
lclavicle 1.06946e-013 -5.08889e-014
lhumerus -32.6296 -4.06183 87.8993
lradius 33.3539
lwrist -1.55181
lhand -8.98986 -8.21076
lfingers 7.12502
lthumb 16.9562 21.0691
rfemur -2.92892 -3.29516 28.0568
rtibia 16.6964
rfoot -6.63201 -0.0750861
rtoes 24.5354
lfemur -15.1912 3.93997 -13.3866
ltibia 72.0757
lfoot 5.98027 -5.91765
ltoes 6.8498
1497
root -16.1797 17.8291 20.8287 353.583 28.0014 -4.67542
lowerback 10.3477 1.87458 1.67511
upperback 4.45227 2.79502 4.07552
thorax -1.28862 1.40938 2.96694
lowerneck -7.76314 -3.05925 -5.19478
upperneck 19.0898 -3.87145 2.93352
head 7.2852 -1.92463 1.49166
rclavicle 6.26172e-014 1.27222e-014
rhumerus -27.5927 -23.9406 -72.3354
rradius 17.4968
rwrist 3.29654
rhand -18.0744 -22.767
rfingers 7.12502
rthumb 8.19854 -52.588
lclavicle 6.26172e-014 1.27222e-014
lhumerus -33.2727 -3.96105 87.8178
lradius 33.3539
lwrist -1.11823
lhand -9.4035 -8.22045
lfingers 7.12502
lthumb 16.558 21.0931
rfemur -1.7894 -3.42131 29.7686
rtibia 16.1829
rfoot -6.68798 0.278777
rtoes 23.4042
lfemur -16.1814 4.37747 -11.3764
ltibia 72.5304
lfoot 4.42019 -5.77762
ltoes 3.88139
1498
root -16.1063 17.8179 20.9788 352.896 27.4206 -5.98373
lowerback 10.5362 2.06651 2.8852
upperback 4.29702 3.18772 4.27693
thorax -1.51386 1.61422 2.4423
lowerneck -7.82518 -3.14139 -5.18963
upperneck 19.55 -4.00337 3.02746
head 7.45412 -1.97701 1.5092
rclavicle -3.47873e-014 -2.78299e-014
rhumerus -27.6576 -23.0334 -72.7867
rradius 18.3158
rwrist 1.92945
rhand -17.7452 -23.099
rfingers 7.12502
rthumb 8.51623 -52.9073
lclavicle -3.47873e-014 -2.78299e-014
lhumerus -33.9747 -3.80689 87.6952
lradius 33.3187
lwrist -0.772058
lhand -9.55989 -8.33756
lfingers 7.12502
lthumb 16.4074 20.9885
rfemur -1.43289 -3.2817 31.1365
rtibia 16.9247
rfoot -7.39236 0.4321
rtoes 22.7894
lfemur -17.2364 4.88427 -9.78997
ltibia 72.6271
lfoot 2.34829 -5.44615
ltoes -1.07319
1499
root -16.047 17.7947 21.1375 351.176 26.3118 -8.74982
lowerback 11.0756 2.19079 5.1133
upperback 4.29737 3.64211 4.96979
thorax -1.72031 1.8541 1.84782
lowerneck -7.57776 -3.19852 -5.38068
upperneck 19.6982 -4.09448 3.18123
head 7.46992 -2.02195 1.5868
rclavicle -4.28381e-014 -9.54166e-015
rhumerus -27.5205 -21.8397 -73.3427
rradius 19.0848
rwrist 0.485586
rhand -18.162 -22.9372
rfingers 7.12502
rthumb 8.11402 -52.7614
lclavicle -4.28381e-014 -9.54166e-015
lhumerus -34.6228 -3.18071 87.4784
lradius 33.1333
lwrist -0.489888
lhand -9.68142 -8.39361
lfingers 7.12502
lthumb 16.2904 20.9421
rfemur 0.2105 -1.9332 34.2193
rtibia 15.919
rfoot -7.37881 -0.472901
rtoes 23.2248
lfemur -17.8143 5.64619 -6.19826
ltibia 73.1883
lfoot 1.34786 -5.61712
ltoes 5.88305
1500
root -15.9595 17.8066 21.2671 351.992 26.4331 -7.7918
lowerback 10.8124 2.26615 4.51742
upperback 4.1405 3.65154 4.57382
thorax -1.75306 1.85233 1.77168
lowerneck -7.35122 -3.29784 -5.72653
upperneck 19.7477 -4.26892 3.58306
head 7.47002 -2.09665 1.76362
rclavicle 5.07895e-014 -9.54166e-015
rhumerus -27.2021 -20.7235 -73.9691
rradius 19.8267
rwrist -1.0081
rhand -18.7154 -22.5516
rfingers 7.12502
rthumb 7.57985 -52.3958
lclavicle 5.07895e-014 -9.54166e-015
lhumerus -34.9694 -2.44415 87.19
lradius 32.8542
lwrist -0.42674
lhand -10.0483 -8.31762
lfingers 7.12502
lthumb 15.9372 21.0467
rfemur 0.705683 -2.50774 33.0826
rtibia 15.2161
rfoot -7.34592 0.195744
rtoes 23.2391
lfemur -19.39 5.48735 -7.55307
ltibia 72.8371
lfoot 0.405645 -4.67426
ltoes 5.44041
1501
root -15.8783 17.8079 21.3987 352.322 26.3129 -7.59267
lowerback 10.6702 2.38354 4.61355
upperback 4.04228 3.80021 4.3091
thorax -1.7531 1.92559 1.42934
lowerneck -10.469 -2.92589 -7.67321
upperneck 22.7666 -3.77257 5.81844
head 9.11181 -1.76184 2.88519
rclavicle -5.62561e-014 -7.95139e-016
rhumerus -26.937 -19.6386 -74.6885
rradius 20.6808
rwrist -2.83184
rhand -19.3573 -22.5936
rfingers 7.12502
rthumb 6.96022 -52.4592
lclavicle -5.62561e-014 -7.95139e-016
lhumerus -35.1501 -1.86893 86.8318
lradius 32.4715
lwrist -0.256218
lhand -10.6125 -8.59573
lfingers 7.12502
lthumb 15.3938 20.8112
rfemur 1.56471 -2.97128 32.7499
rtibia 14.1474
rfoot -7.09439 0.838575
rtoes 23.0758
lfemur -20.6938 5.38305 -7.86983
ltibia 72.6045
lfoot -0.686944 -4.04515
ltoes 7.45881
1502
root -15.7999 17.8059 21.5421 352.356 25.7827 -7.8081
lowerback 10.6405 2.60909 4.91366
upperback 3.95746 4.12697 4.22136
thorax -1.79461 2.08766 1.1333
lowerneck -8.78436 -3.2849 -6.31385
upperneck 21.4124 -4.30498 4.52667
head 8.31778 -2.05179 2.15931
rclavicle -5.07895e-014 4.29375e-014
rhumerus -26.8065 -18.6713 -75.277
rradius 21.6477
rwrist -4.40076
rhand -19.9847 -22.4001
rfingers 7.12502
rthumb 6.35461 -52.2848
lclavicle -5.07895e-014 4.29375e-014
lhumerus -35.3663 -1.61853 86.6145
lradius 32.0762
lwrist 0.146869
lhand -11.2039 -9.21734
lfingers 7.12502
lthumb 14.8241 20.2324
rfemur 1.74797 -2.71918 32.9855
rtibia 14.8534
rfoot -7.66539 1.29109
rtoes 24.2239
lfemur -21.651 5.54617 -7.57543
ltibia 71.9559
lfoot -1.70415 -3.60896
ltoes 9.49863
1503
root -15.75 17.7318 21.6978 349.931 24.2016 -11.4816
lowerback 11.4494 2.76945 7.84997
upperback 4.29416 4.74611 5.28116
thorax -1.71715 2.41933 0.519009
lowerneck -9.1151 -3.36306 -6.27104
upperneck 21.5935 -4.33654 4.20712
head 8.43484 -2.08996 2.03778
rclavicle -1.78906e-014 -5.88403e-014
rhumerus -26.355 -17.7765 -75.6631
rradius 22.4828
rwrist -5.57482
rhand -19.6714 -22.1985
rfingers 7.12502
rthumb 6.65703 -52.0739
lclavicle -1.78906e-014 -5.88403e-014
lhumerus -35.4657 -1.2452 86.5993
lradius 31.9725
lwrist 0.321513
lhand -11.5314 -9.53745
lfingers 7.12502
lthumb 14.5085 19.9353
rfemur 3.31949 -0.808431 37.2188
rtibia 14.8274
rfoot -7.83922 0.174169
rtoes 25.737
lfemur -21.7484 6.83421 -2.86602
ltibia 71.7327
lfoot -2.6804 -4.58556
ltoes 9.56465
